<svg xmlns="http://www.w3.org/2000/svg" xmlns:xlink="http://www.w3.org/1999/xlink" viewBox="0 0 400 400" width="400"
    height="400" preserveAspectRatio="xMidYMid meet"
    style="width: 100%; height: 100%; transform: translate3d(0px, 0px, 0px); content-visibility: visible;">
    <defs>
        <clipPath id="__lottie_element_2">
            <rect width="400" height="400" x="0" y="0"></rect>
        </clipPath>
    </defs>
    <g clip-path="url(#__lottie_element_2)">
        <g transform="matrix(1,0,0,1,278.5,304.5)" opacity="1" style="display: block;">
            <g opacity="1" transform="matrix(1,0,0,1,9.166999816894531,9.166000366210938)">
                <path stroke-linecap="butt" stroke-linejoin="miter" fill-opacity="0" stroke-miterlimit="10"
                    stroke="rgb(14,225,113)" stroke-opacity="1" stroke-width="1"
                    d=" M6.666999816894531,-0.0010000000474974513 C6.666999816894531,3.681999921798706 3.681999921798706,6.665999889373779 0,6.665999889373779 C-3.683000087738037,6.665999889373779 -6.666999816894531,3.681999921798706 -6.666999816894531,-0.0010000000474974513 C-6.666999816894531,-3.683000087738037 -3.683000087738037,-6.665999889373779 0,-6.665999889373779 C3.681999921798706,-6.665999889373779 6.666999816894531,-3.683000087738037 6.666999816894531,-0.0010000000474974513z">
                </path>
            </g>
        </g>
        <g transform="matrix(1,0,0,1,47.5,121.5)" opacity="1" style="display: block;">
            <g opacity="1" transform="matrix(1,0,0,1,9.166000366210938,9.166000366210938)">
                <path stroke-linecap="butt" stroke-linejoin="miter" fill-opacity="0" stroke-miterlimit="10"
                    stroke="rgb(14,225,113)" stroke-opacity="1" stroke-width="1"
                    d=" M6.666999816894531,-0.0010000000474974513 C6.666999816894531,3.681999921798706 3.680999994277954,6.666999816894531 -0.0010000000474974513,6.666999816894531 C-3.683000087738037,6.666999816894531 -6.666999816894531,3.681999921798706 -6.666999816894531,-0.0010000000474974513 C-6.666999816894531,-3.683000087738037 -3.683000087738037,-6.666999816894531 -0.0010000000474974513,-6.666999816894531 C3.680999994277954,-6.666999816894531 6.666999816894531,-3.683000087738037 6.666999816894531,-0.0010000000474974513z">
                </path>
            </g>
        </g>
        <g transform="matrix(1,0,0,1,97.5,301.5)" opacity="1" style="display: block;">
            <g opacity="1" transform="matrix(1,0,0,1,9.166000366210938,9.166000366210938)">
                <path stroke-linecap="butt" stroke-linejoin="miter" fill-opacity="0" stroke-miterlimit="10"
                    stroke="rgb(147,241,69)" stroke-opacity="1" stroke-width="1"
                    d=" M6.666999816894531,-0.0010000000474974513 C6.666999816894531,3.681999921798706 3.680999994277954,6.666999816894531 -0.0010000000474974513,6.666999816894531 C-3.683000087738037,6.666999816894531 -6.666999816894531,3.681999921798706 -6.666999816894531,-0.0010000000474974513 C-6.666999816894531,-3.683000087738037 -3.683000087738037,-6.666999816894531 -0.0010000000474974513,-6.666999816894531 C3.680999994277954,-6.666999816894531 6.666999816894531,-3.683000087738037 6.666999816894531,-0.0010000000474974513z">
                </path>
            </g>
        </g>
        <g transform="matrix(1,0,0,1,35,251)" opacity="1" style="display: block;">
            <g opacity="1" transform="matrix(1,0,0,1,18.207000732421875,18.20800018310547)">
                <path fill="rgb(241,236,72)" fill-opacity="1"
                    d=" M6.320000171661377,2.7060000896453857 C6.320000171661377,2.7060000896453857 2.7060000896453857,6.321000099182129 2.7060000896453857,6.321000099182129 C1.2120000123977661,7.815000057220459 -1.2120000123977661,7.815000057220459 -2.7070000171661377,6.321000099182129 C-2.7070000171661377,6.321000099182129 -6.320000171661377,2.7060000896453857 -6.320000171661377,2.7060000896453857 C-7.815000057220459,1.2109999656677246 -7.815000057220459,-1.2109999656677246 -6.320000171661377,-2.7060000896453857 C-6.320000171661377,-2.7060000896453857 -2.7070000171661377,-6.320000171661377 -2.7070000171661377,-6.320000171661377 C-1.2120000123977661,-7.814000129699707 1.2120000123977661,-7.814000129699707 2.7060000896453857,-6.320000171661377 C2.7060000896453857,-6.320000171661377 6.320000171661377,-2.7060000896453857 6.320000171661377,-2.7060000896453857 C7.815000057220459,-1.2109999656677246 7.815000057220459,1.2109999656677246 6.320000171661377,2.7060000896453857z">
                </path>
            </g>
            <g opacity="1" transform="matrix(1,0,0,1,18.207000732421875,4.0920000076293945)">
                <path fill="rgb(241,236,72)" fill-opacity="1"
                    d=" M0.48500001430511475,3.8420000076293945 C0.48500001430511475,3.8420000076293945 -0.48500001430511475,3.8420000076293945 -0.48500001430511475,3.8420000076293945 C-0.48500001430511475,3.8420000076293945 -0.48500001430511475,-3.8420000076293945 -0.48500001430511475,-3.8420000076293945 C-0.48500001430511475,-3.8420000076293945 0.48500001430511475,-3.8420000076293945 0.48500001430511475,-3.8420000076293945 C0.48500001430511475,-3.8420000076293945 0.48500001430511475,3.8420000076293945 0.48500001430511475,3.8420000076293945z">
                </path>
            </g>
            <g opacity="1" transform="matrix(1,0,0,1,18.207000732421875,32.323001861572266)">
                <path fill="rgb(241,236,72)" fill-opacity="1"
                    d=" M0.48500001430511475,3.8420000076293945 C0.48500001430511475,3.8420000076293945 -0.48500001430511475,3.8420000076293945 -0.48500001430511475,3.8420000076293945 C-0.48500001430511475,3.8420000076293945 -0.48500001430511475,-3.8420000076293945 -0.48500001430511475,-3.8420000076293945 C-0.48500001430511475,-3.8420000076293945 0.48500001430511475,-3.8420000076293945 0.48500001430511475,-3.8420000076293945 C0.48500001430511475,-3.8420000076293945 0.48500001430511475,3.8420000076293945 0.48500001430511475,3.8420000076293945z">
                </path>
            </g>
            <g opacity="1" transform="matrix(1,0,0,1,32.321998596191406,18.207000732421875)">
                <path fill="rgb(241,236,72)" fill-opacity="1"
                    d=" M3.8420000076293945,0.4860000014305115 C3.8420000076293945,0.4860000014305115 -3.8420000076293945,0.4860000014305115 -3.8420000076293945,0.4860000014305115 C-3.8420000076293945,0.4860000014305115 -3.8420000076293945,-0.4860000014305115 -3.8420000076293945,-0.4860000014305115 C-3.8420000076293945,-0.4860000014305115 3.8420000076293945,-0.4860000014305115 3.8420000076293945,-0.4860000014305115 C3.8420000076293945,-0.4860000014305115 3.8420000076293945,0.4860000014305115 3.8420000076293945,0.4860000014305115z">
                </path>
            </g>
            <g opacity="1" transform="matrix(1,0,0,1,4.0920000076293945,18.207000732421875)">
                <path fill="rgb(241,236,72)" fill-opacity="1"
                    d=" M3.8420000076293945,0.4860000014305115 C3.8420000076293945,0.4860000014305115 -3.8420000076293945,0.4860000014305115 -3.8420000076293945,0.4860000014305115 C-3.8420000076293945,0.4860000014305115 -3.8420000076293945,-0.4860000014305115 -3.8420000076293945,-0.4860000014305115 C-3.8420000076293945,-0.4860000014305115 3.8420000076293945,-0.4860000014305115 3.8420000076293945,-0.4860000014305115 C3.8420000076293945,-0.4860000014305115 3.8420000076293945,0.4860000014305115 3.8420000076293945,0.4860000014305115z">
                </path>
            </g>
        </g>
        <g transform="matrix(1,0,0,1,334,134)" opacity="1" style="display: block;">
            <g opacity="1" transform="matrix(1,0,0,1,18.20800018310547,18.20800018310547)">
                <path fill="rgb(241,236,72)" fill-opacity="1"
                    d=" M6.320000171661377,2.7060000896453857 C6.320000171661377,2.7060000896453857 2.7070000171661377,6.320000171661377 2.7070000171661377,6.320000171661377 C1.2130000591278076,7.815000057220459 -1.2109999656677246,7.815000057220459 -2.7060000896453857,6.320000171661377 C-2.7060000896453857,6.320000171661377 -6.320000171661377,2.7060000896453857 -6.320000171661377,2.7060000896453857 C-7.815000057220459,1.2109999656677246 -7.815000057220459,-1.2109999656677246 -6.320000171661377,-2.7060000896453857 C-6.320000171661377,-2.7060000896453857 -2.7060000896453857,-6.320000171661377 -2.7060000896453857,-6.320000171661377 C-1.2109999656677246,-7.814000129699707 1.2130000591278076,-7.814000129699707 2.7070000171661377,-6.320000171661377 C2.7070000171661377,-6.320000171661377 6.320000171661377,-2.7060000896453857 6.320000171661377,-2.7060000896453857 C7.815000057220459,-1.2109999656677246 7.815000057220459,1.2109999656677246 6.320000171661377,2.7060000896453857z">
                </path>
            </g>
            <g opacity="1" transform="matrix(1,0,0,1,18.20800018310547,4.0920000076293945)">
                <path fill="rgb(241,236,72)" fill-opacity="1"
                    d=" M0.48500001430511475,3.8420000076293945 C0.48500001430511475,3.8420000076293945 -0.48500001430511475,3.8420000076293945 -0.48500001430511475,3.8420000076293945 C-0.48500001430511475,3.8420000076293945 -0.48500001430511475,-3.8420000076293945 -0.48500001430511475,-3.8420000076293945 C-0.48500001430511475,-3.8420000076293945 0.48500001430511475,-3.8420000076293945 0.48500001430511475,-3.8420000076293945 C0.48500001430511475,-3.8420000076293945 0.48500001430511475,3.8420000076293945 0.48500001430511475,3.8420000076293945z">
                </path>
            </g>
            <g opacity="1" transform="matrix(1,0,0,1,18.20800018310547,32.323001861572266)">
                <path fill="rgb(241,236,72)" fill-opacity="1"
                    d=" M0.48500001430511475,3.8420000076293945 C0.48500001430511475,3.8420000076293945 -0.48500001430511475,3.8420000076293945 -0.48500001430511475,3.8420000076293945 C-0.48500001430511475,3.8420000076293945 -0.48500001430511475,-3.8420000076293945 -0.48500001430511475,-3.8420000076293945 C-0.48500001430511475,-3.8420000076293945 0.48500001430511475,-3.8420000076293945 0.48500001430511475,-3.8420000076293945 C0.48500001430511475,-3.8420000076293945 0.48500001430511475,3.8420000076293945 0.48500001430511475,3.8420000076293945z">
                </path>
            </g>
            <g opacity="1" transform="matrix(1,0,0,1,32.323001861572266,18.20800018310547)">
                <path fill="rgb(241,236,72)" fill-opacity="1"
                    d=" M3.8420000076293945,0.48500001430511475 C3.8420000076293945,0.48500001430511475 -3.8420000076293945,0.48500001430511475 -3.8420000076293945,0.48500001430511475 C-3.8420000076293945,0.48500001430511475 -3.8420000076293945,-0.48500001430511475 -3.8420000076293945,-0.48500001430511475 C-3.8420000076293945,-0.48500001430511475 3.8420000076293945,-0.48500001430511475 3.8420000076293945,-0.48500001430511475 C3.8420000076293945,-0.48500001430511475 3.8420000076293945,0.48500001430511475 3.8420000076293945,0.48500001430511475z">
                </path>
            </g>
            <g opacity="1" transform="matrix(1,0,0,1,4.0920000076293945,18.20800018310547)">
                <path fill="rgb(241,236,72)" fill-opacity="1"
                    d=" M3.8420000076293945,0.48500001430511475 C3.8420000076293945,0.48500001430511475 -3.8420000076293945,0.48500001430511475 -3.8420000076293945,0.48500001430511475 C-3.8420000076293945,0.48500001430511475 -3.8420000076293945,-0.48500001430511475 -3.8420000076293945,-0.48500001430511475 C-3.8420000076293945,-0.48500001430511475 3.8420000076293945,-0.48500001430511475 3.8420000076293945,-0.48500001430511475 C3.8420000076293945,-0.48500001430511475 3.8420000076293945,0.48500001430511475 3.8420000076293945,0.48500001430511475z">
                </path>
            </g>
        </g>
        <g transform="matrix(-0.9743700623512268,-0.22495105862617493,0.22495105862617493,-0.9743700623512268,83.37238311767578,110.39694213867188)"
            opacity="1" style="display: block;">
            <g opacity="1" transform="matrix(1,0,0,1,4.020999908447266,4.020999908447266)">
                <path fill="rgb(137,198,236)" fill-opacity="1"
                    d=" M2.121999979019165,3.7709999084472656 C2.121999979019165,3.7709999084472656 -3.7709999084472656,-2.121000051498413 -3.7709999084472656,-2.121000051498413 C-3.7709999084472656,-2.121000051498413 -2.121999979019165,-3.7709999084472656 -2.121999979019165,-3.7709999084472656 C-2.121999979019165,-3.7709999084472656 3.7709999084472656,2.121999979019165 3.7709999084472656,2.121999979019165 C3.7709999084472656,2.121999979019165 2.121999979019165,3.7709999084472656 2.121999979019165,3.7709999084472656z">
                </path>
            </g>
            <g opacity="1" transform="matrix(1,0,0,1,4.020999908447266,4.021999835968018)">
                <path fill="rgb(137,198,236)" fill-opacity="1"
                    d=" M2.121999979019165,-3.7720000743865967 C2.121999979019165,-3.7720000743865967 -3.7709999084472656,2.121999979019165 -3.7709999084472656,2.121999979019165 C-3.7709999084472656,2.121999979019165 -2.121999979019165,3.7720000743865967 -2.121999979019165,3.7720000743865967 C-2.121999979019165,3.7720000743865967 3.7709999084472656,-2.121999979019165 3.7709999084472656,-2.121999979019165 C3.7709999084472656,-2.121999979019165 2.121999979019165,-3.7720000743865967 2.121999979019165,-3.7720000743865967z">
                </path>
            </g>
        </g>
        <g transform="matrix(-0.9743700623512268,-0.22495105862617493,0.22495105862617493,-0.9743700623512268,327.37237548828125,303.3969421386719)"
            opacity="1" style="display: block;">
            <g opacity="1" transform="matrix(1,0,0,1,4.020999908447266,4.020999908447266)">
                <path fill="rgb(137,198,236)" fill-opacity="1"
                    d=" M2.121999979019165,3.7709999084472656 C2.121999979019165,3.7709999084472656 -3.7709999084472656,-2.121000051498413 -3.7709999084472656,-2.121000051498413 C-3.7709999084472656,-2.121000051498413 -2.121999979019165,-3.7709999084472656 -2.121999979019165,-3.7709999084472656 C-2.121999979019165,-3.7709999084472656 3.7709999084472656,2.121999979019165 3.7709999084472656,2.121999979019165 C3.7709999084472656,2.121999979019165 2.121999979019165,3.7709999084472656 2.121999979019165,3.7709999084472656z">
                </path>
            </g>
            <g opacity="1" transform="matrix(1,0,0,1,4.020999908447266,4.021999835968018)">
                <path fill="rgb(137,198,236)" fill-opacity="1"
                    d=" M2.121999979019165,-3.7720000743865967 C2.121999979019165,-3.7720000743865967 -3.7709999084472656,2.121999979019165 -3.7709999084472656,2.121999979019165 C-3.7709999084472656,2.121999979019165 -2.121999979019165,3.7720000743865967 -2.121999979019165,3.7720000743865967 C-2.121999979019165,3.7720000743865967 3.7709999084472656,-2.121999979019165 3.7709999084472656,-2.121999979019165 C3.7709999084472656,-2.121999979019165 2.121999979019165,-3.7720000743865967 2.121999979019165,-3.7720000743865967z">
                </path>
            </g>
        </g>
        <g transform="matrix(-0.9743700623512268,-0.22495105862617493,0.22495105862617493,-0.9743700623512268,384.87237548828125,195.39694213867188)"
            opacity="1" style="display: block;">
            <g opacity="1" transform="matrix(1,0,0,1,4.020999908447266,4.020999908447266)">
                <path fill="rgb(137,198,236)" fill-opacity="1"
                    d=" M2.121999979019165,3.7709999084472656 C2.121999979019165,3.7709999084472656 -3.7709999084472656,-2.121999979019165 -3.7709999084472656,-2.121999979019165 C-3.7709999084472656,-2.121999979019165 -2.121999979019165,-3.7709999084472656 -2.121999979019165,-3.7709999084472656 C-2.121999979019165,-3.7709999084472656 3.7709999084472656,2.121000051498413 3.7709999084472656,2.121000051498413 C3.7709999084472656,2.121000051498413 2.121999979019165,3.7709999084472656 2.121999979019165,3.7709999084472656z">
                </path>
            </g>
            <g opacity="1" transform="matrix(1,0,0,1,4.020999908447266,4.020999908447266)">
                <path fill="rgb(137,198,236)" fill-opacity="1"
                    d=" M2.121999979019165,-3.7709999084472656 C2.121999979019165,-3.7709999084472656 -3.7709999084472656,2.121999979019165 -3.7709999084472656,2.121999979019165 C-3.7709999084472656,2.121999979019165 -2.121999979019165,3.7709999084472656 -2.121999979019165,3.7709999084472656 C-2.121999979019165,3.7709999084472656 3.7709999084472656,-2.121000051498413 3.7709999084472656,-2.121000051498413 C3.7709999084472656,-2.121000051498413 2.121999979019165,-3.7709999084472656 2.121999979019165,-3.7709999084472656z">
                </path>
            </g>
        </g>
        <g transform="matrix(-0.9743700623512268,-0.22495105862617493,0.22495105862617493,-0.9743700623512268,28.872385025024414,168.39694213867188)"
            opacity="1" style="display: block;">
            <g opacity="1" transform="matrix(1,0,0,1,4.020999908447266,4.020999908447266)">
                <path fill="rgb(137,198,236)" fill-opacity="1"
                    d=" M2.121999979019165,3.7709999084472656 C2.121999979019165,3.7709999084472656 -3.7709999084472656,-2.121000051498413 -3.7709999084472656,-2.121000051498413 C-3.7709999084472656,-2.121000051498413 -2.119999885559082,-3.7709999084472656 -2.119999885559082,-3.7709999084472656 C-2.119999885559082,-3.7709999084472656 3.7709999084472656,2.121999979019165 3.7709999084472656,2.121999979019165 C3.7709999084472656,2.121999979019165 2.121999979019165,3.7709999084472656 2.121999979019165,3.7709999084472656z">
                </path>
            </g>
            <g opacity="1" transform="matrix(1,0,0,1,4.020999908447266,4.021999835968018)">
                <path fill="rgb(137,198,236)" fill-opacity="1"
                    d=" M2.121999979019165,-3.7720000743865967 C2.121999979019165,-3.7720000743865967 -3.7709999084472656,2.121999979019165 -3.7709999084472656,2.121999979019165 C-3.7709999084472656,2.121999979019165 -2.119999885559082,3.7720000743865967 -2.119999885559082,3.7720000743865967 C-2.119999885559082,3.7720000743865967 3.7709999084472656,-2.121999979019165 3.7709999084472656,-2.121999979019165 C3.7709999084472656,-2.121999979019165 2.121999979019165,-3.7720000743865967 2.121999979019165,-3.7720000743865967z">
                </path>
            </g>
        </g>
        <g transform="matrix(-0.9743700623512268,-0.22495105862617493,0.22495105862617493,-0.9743700623512268,325.37237548828125,122.89694213867188)"
            opacity="1" style="display: block;">
            <g opacity="1" transform="matrix(1,0,0,1,4.020999908447266,4.021999835968018)">
                <path fill="rgb(137,198,236)" fill-opacity="1"
                    d=" M2.121999979019165,3.7709999084472656 C2.121999979019165,3.7709999084472656 -3.7709999084472656,-2.121999979019165 -3.7709999084472656,-2.121999979019165 C-3.7709999084472656,-2.121999979019165 -2.121000051498413,-3.7709999084472656 -2.121000051498413,-3.7709999084472656 C-2.121000051498413,-3.7709999084472656 3.7709999084472656,2.121000051498413 3.7709999084472656,2.121000051498413 C3.7709999084472656,2.121000051498413 2.121999979019165,3.7709999084472656 2.121999979019165,3.7709999084472656z">
                </path>
            </g>
            <g opacity="1" transform="matrix(1,0,0,1,4.020999908447266,4.020999908447266)">
                <path fill="rgb(137,198,236)" fill-opacity="1"
                    d=" M2.121999979019165,-3.7709999084472656 C2.121999979019165,-3.7709999084472656 -3.7709999084472656,2.121999979019165 -3.7709999084472656,2.121999979019165 C-3.7709999084472656,2.121999979019165 -2.121000051498413,3.7709999084472656 -2.121000051498413,3.7709999084472656 C-2.121000051498413,3.7709999084472656 3.7709999084472656,-2.121000051498413 3.7709999084472656,-2.121000051498413 C3.7709999084472656,-2.121000051498413 2.121999979019165,-3.7709999084472656 2.121999979019165,-3.7709999084472656z">
                </path>
            </g>
        </g>
        <g transform="matrix(0.9998090267181396,-0.019543439149856567,0.019543439149856567,0.9998090267181396,71.56158447265625,76.48654174804688)"
            opacity="1" style="display: block;">
            <g opacity="1" transform="matrix(1,0,0,1,125.8030014038086,125.80400085449219)">
                <path stroke-linecap="butt" stroke-linejoin="miter" fill-opacity="0" stroke-miterlimit="10"
                    stroke-dasharray=" 5.995 5.995" stroke-dashoffset="0" stroke="rgb(136,169,238)" stroke-opacity="1"
                    stroke-width="3"
                    d=" M118.3030014038086,0.0010000000474974513 C118.3030014038086,65.33799743652344 65.33699798583984,118.30400085449219 -0.0010000000474974513,118.30400085449219 C-65.33799743652344,118.30400085449219 -118.3030014038086,65.33799743652344 -118.3030014038086,0.0010000000474974513 C-118.3030014038086,-65.33599853515625 -65.33799743652344,-118.30400085449219 -0.0010000000474974513,-118.30400085449219 C65.33699798583984,-118.30400085449219 118.3030014038086,-65.33599853515625 118.3030014038086,0.0010000000474974513z">
                </path>
            </g>
        </g>
        <g transform="matrix(1,0,0,1,150,127)" opacity="1" style="display: block;">
            <g opacity="1" transform="matrix(1,0,0,1,46.57500076293945,73.46900177001953)">
                <path fill="rgb(128,146,237)" fill-opacity="1"
                    d=" M39.07500076293945,47.75 C39.07500076293945,47.75 -39.07500076293945,47.75 -39.07500076293945,47.75 C-39.07500076293945,47.75 -39.07500076293945,-47.75 -39.07500076293945,-47.75 C-39.07500076293945,-47.75 26.575000762939453,-47.75 26.575000762939453,-47.75 C26.575000762939453,-47.75 39.07500076293945,-35.17499923706055 39.07500076293945,-35.17499923706055 C39.07500076293945,-35.17499923706055 39.07500076293945,47.75 39.07500076293945,47.75z">
                </path>
                <path stroke-linecap="butt" stroke-linejoin="miter" fill-opacity="0" stroke-miterlimit="10"
                    stroke="rgb(82,111,193)" stroke-opacity="1" stroke-width="3"
                    d=" M39.07500076293945,47.75 C39.07500076293945,47.75 -39.07500076293945,47.75 -39.07500076293945,47.75 C-39.07500076293945,47.75 -39.07500076293945,-47.75 -39.07500076293945,-47.75 C-39.07500076293945,-47.75 26.575000762939453,-47.75 26.575000762939453,-47.75 C26.575000762939453,-47.75 39.07500076293945,-35.17499923706055 39.07500076293945,-35.17499923706055 C39.07500076293945,-35.17499923706055 39.07500076293945,47.75 39.07500076293945,47.75z">
                </path>
            </g>
            <g opacity="1" transform="matrix(1,0,0,1,63.73400115966797,57.79399871826172)">
                <path fill="rgb(255,255,255)" fill-opacity="1"
                    d=" M40.91699981689453,50 C40.91699981689453,50 -40.91699981689453,50 -40.91699981689453,50 C-40.91699981689453,50 -40.91699981689453,-50 -40.91699981689453,-50 C-40.91699981689453,-50 17.25,-50 17.25,-50 C17.25,-50 16.91699981689453,-26 16.91699981689453,-26 C16.91699981689453,-26 40.91699981689453,-26 40.91699981689453,-26 C40.91699981689453,-26 40.91699981689453,50 40.91699981689453,50z">
                </path>
                <path stroke-linecap="butt" stroke-linejoin="miter" fill-opacity="0" stroke-miterlimit="10"
                    stroke="rgb(82,111,193)" stroke-opacity="1" stroke-width="3"
                    d=" M40.91699981689453,50 C40.91699981689453,50 -40.91699981689453,50 -40.91699981689453,50 C-40.91699981689453,50 -40.91699981689453,-50 -40.91699981689453,-50 C-40.91699981689453,-50 17.25,-50 17.25,-50 C17.25,-50 16.91699981689453,-26 16.91699981689453,-26 C16.91699981689453,-26 40.91699981689453,-26 40.91699981689453,-26 C40.91699981689453,-26 40.91699981689453,50 40.91699981689453,50z">
                </path>
            </g>
            <g opacity="1" transform="matrix(1,0,0,1,93.2239990234375,19.413000106811523)">
                <path stroke-linecap="butt" stroke-linejoin="miter" fill-opacity="0" stroke-miterlimit="10"
                    stroke="rgb(82,111,193)" stroke-opacity="1" stroke-width="3"
                    d=" M-11.847999572753906,-11.913000106811523 C-11.847999572753906,-11.913000106811523 11.847999572753906,11.913000106811523 11.847999572753906,11.913000106811523">
                </path>
            </g>
            <g opacity="1" transform="matrix(1,0,0,1,62.81700134277344,52.12699890136719)">
                <path fill="rgb(82,111,193)" fill-opacity="1"
                    d=" M27.16699981689453,2.1670000553131104 C27.16699981689453,2.1670000553131104 -27.16699981689453,2.1670000553131104 -27.16699981689453,2.1670000553131104 C-27.16699981689453,2.1670000553131104 -27.16699981689453,-2.1670000553131104 -27.16699981689453,-2.1670000553131104 C-27.16699981689453,-2.1670000553131104 27.16699981689453,-2.1670000553131104 27.16699981689453,-2.1670000553131104 C27.16699981689453,-2.1670000553131104 27.16699981689453,2.1670000553131104 27.16699981689453,2.1670000553131104z">
                </path>
            </g>
            <g opacity="1" transform="matrix(1,0,0,1,62.81700134277344,65.45999908447266)">
                <path fill="rgb(82,111,193)" fill-opacity="1"
                    d=" M27.16699981689453,2.1670000553131104 C27.16699981689453,2.1670000553131104 -27.16699981689453,2.1670000553131104 -27.16699981689453,2.1670000553131104 C-27.16699981689453,2.1670000553131104 -27.16699981689453,-2.1670000553131104 -27.16699981689453,-2.1670000553131104 C-27.16699981689453,-2.1670000553131104 27.16699981689453,-2.1670000553131104 27.16699981689453,-2.1670000553131104 C27.16699981689453,-2.1670000553131104 27.16699981689453,2.1670000553131104 27.16699981689453,2.1670000553131104z">
                </path>
            </g>
            <g opacity="1" transform="matrix(1,0,0,1,62.81700134277344,78.79399871826172)">
                <path fill="rgb(82,111,193)" fill-opacity="1"
                    d=" M27.16699981689453,2.1670000553131104 C27.16699981689453,2.1670000553131104 -27.16699981689453,2.1670000553131104 -27.16699981689453,2.1670000553131104 C-27.16699981689453,2.1670000553131104 -27.16699981689453,-2.1670000553131104 -27.16699981689453,-2.1670000553131104 C-27.16699981689453,-2.1670000553131104 27.16699981689453,-2.1670000553131104 27.16699981689453,-2.1670000553131104 C27.16699981689453,-2.1670000553131104 27.16699981689453,2.1670000553131104 27.16699981689453,2.1670000553131104z">
                </path>
            </g>
            <g opacity="1" transform="matrix(1,0,0,1,44.98400115966797,27.12700080871582)">
                <path fill="rgb(82,111,193)" fill-opacity="1"
                    d=" M9.333000183105469,9.333000183105469 C9.333000183105469,9.333000183105469 -9.333000183105469,9.333000183105469 -9.333000183105469,9.333000183105469 C-9.333000183105469,9.333000183105469 -9.333000183105469,-9.333000183105469 -9.333000183105469,-9.333000183105469 C-9.333000183105469,-9.333000183105469 9.333000183105469,-9.333000183105469 9.333000183105469,-9.333000183105469 C9.333000183105469,-9.333000183105469 9.333000183105469,9.333000183105469 9.333000183105469,9.333000183105469z">
                </path>
            </g>
        </g>
        <g transform="matrix(1,0,0,1,26.5,159.5)" opacity="1" style="display: block;">
            <g opacity="1" transform="matrix(1,0,0,1,54.83399963378906,37.058998107910156)">
                <path fill="rgb(128,146,237)" fill-opacity="1"
                    d=" M47.33300018310547,8.163999557495117 C47.33300018310547,19.979999542236328 37.755001068115234,29.55900001525879 25.93899917602539,29.55900001525879 C25.93899917602539,29.55900001525879 -25.947999954223633,29.55900001525879 -25.947999954223633,29.55900001525879 C-37.755001068115234,29.55900001525879 -47.33300018310547,19.979999542236328 -47.33300018310547,8.163999557495117 C-47.33300018310547,-3.6510000228881836 -37.755001068115234,-13.220999717712402 -25.947999954223633,-13.220999717712402 C-25.868000030517578,-13.220999717712402 -25.788999557495117,-13.222000122070312 -25.708999633789062,-13.213000297546387 C-22.270000457763672,-22.743999481201172 -13.13700008392334,-29.55900001525879 -2.4200000762939453,-29.55900001525879 C8.503000259399414,-29.55900001525879 17.77899932861328,-22.481000900268555 21.066999435424805,-12.656000137329102 C22.635000228881836,-13.029999732971191 24.26799964904785,-13.220999717712402 25.93899917602539,-13.220999717712402 C37.755001068115234,-13.220999717712402 47.33300018310547,-3.6510000228881836 47.33300018310547,8.163999557495117z">
                </path>
                <path stroke-linecap="butt" stroke-linejoin="miter" fill-opacity="0" stroke-miterlimit="10"
                    stroke="rgb(82,111,193)" stroke-opacity="1" stroke-width="3"
                    d=" M47.33300018310547,8.163999557495117 C47.33300018310547,19.979999542236328 37.755001068115234,29.55900001525879 25.93899917602539,29.55900001525879 C25.93899917602539,29.55900001525879 -25.947999954223633,29.55900001525879 -25.947999954223633,29.55900001525879 C-37.755001068115234,29.55900001525879 -47.33300018310547,19.979999542236328 -47.33300018310547,8.163999557495117 C-47.33300018310547,-3.6510000228881836 -37.755001068115234,-13.220999717712402 -25.947999954223633,-13.220999717712402 C-25.868000030517578,-13.220999717712402 -25.788999557495117,-13.222000122070312 -25.708999633789062,-13.213000297546387 C-22.270000457763672,-22.743999481201172 -13.13700008392334,-29.55900001525879 -2.4200000762939453,-29.55900001525879 C8.503000259399414,-29.55900001525879 17.77899932861328,-22.481000900268555 21.066999435424805,-12.656000137329102 C22.635000228881836,-13.029999732971191 24.26799964904785,-13.220999717712402 25.93899917602539,-13.220999717712402 C37.755001068115234,-13.220999717712402 47.33300018310547,-3.6510000228881836 47.33300018310547,8.163999557495117z">
                </path>
            </g>
        </g>
        <g transform="matrix(1,0,0,1,263.2619934082031,198.0189971923828)" opacity="1" style="display: block;">
            <g opacity="1" transform="matrix(1,0,0,1,65.40799713134766,43.66299819946289)">
                <path fill="rgb(128,146,237)" fill-opacity="1"
                    d=" M57.909000396728516,9.98799991607666 C57.909000396728516,24.44300079345703 46.191001892089844,36.16299819946289 31.736000061035156,36.16299819946289 C31.736000061035156,36.16299819946289 -31.7450008392334,36.16299819946289 -31.7450008392334,36.16299819946289 C-46.191001892089844,36.16299819946289 -57.909000396728516,24.44300079345703 -57.909000396728516,9.98799991607666 C-57.909000396728516,-4.4670000076293945 -46.191001892089844,-16.174999237060547 -31.7450008392334,-16.174999237060547 C-31.648000717163086,-16.174999237060547 -31.551000595092773,-16.174999237060547 -31.452999114990234,-16.165000915527344 C-27.2450008392334,-27.823999404907227 -16.07200050354004,-36.16299819946289 -2.9609999656677246,-36.16299819946289 C10.402999877929688,-36.16299819946289 21.750999450683594,-27.503999710083008 25.773000717163086,-15.484000205993652 C27.691999435424805,-15.942000389099121 29.690000534057617,-16.174999237060547 31.736000061035156,-16.174999237060547 C46.191001892089844,-16.174999237060547 57.909000396728516,-4.4670000076293945 57.909000396728516,9.98799991607666z">
                </path>
                <path stroke-linecap="butt" stroke-linejoin="miter" fill-opacity="0" stroke-miterlimit="10"
                    stroke="rgb(82,111,193)" stroke-opacity="1" stroke-width="3"
                    d=" M57.909000396728516,9.98799991607666 C57.909000396728516,24.44300079345703 46.191001892089844,36.16299819946289 31.736000061035156,36.16299819946289 C31.736000061035156,36.16299819946289 -31.7450008392334,36.16299819946289 -31.7450008392334,36.16299819946289 C-46.191001892089844,36.16299819946289 -57.909000396728516,24.44300079345703 -57.909000396728516,9.98799991607666 C-57.909000396728516,-4.4670000076293945 -46.191001892089844,-16.174999237060547 -31.7450008392334,-16.174999237060547 C-31.648000717163086,-16.174999237060547 -31.551000595092773,-16.174999237060547 -31.452999114990234,-16.165000915527344 C-27.2450008392334,-27.823999404907227 -16.07200050354004,-36.16299819946289 -2.9609999656677246,-36.16299819946289 C10.402999877929688,-36.16299819946289 21.750999450683594,-27.503999710083008 25.773000717163086,-15.484000205993652 C27.691999435424805,-15.942000389099121 29.690000534057617,-16.174999237060547 31.736000061035156,-16.174999237060547 C46.191001892089844,-16.174999237060547 57.909000396728516,-4.4670000076293945 57.909000396728516,9.98799991607666z">
                </path>
            </g>
        </g>
        <g transform="matrix(1,0,0,1,315.2619934082031,219.0189971923828)" opacity="1" style="display: block;">
            <g opacity="1" transform="matrix(1,0,0,1,11.392000198364258,19.839000701904297)">
                <path fill="rgb(255,255,255)" fill-opacity="1"
                    d=" M0,10.423999786376953 C0,10.423999786376953 0,10.423999786376953 0,10.423999786376953 C0.7009999752044678,10.423999786376953 1.2710000276565552,9.854999542236328 1.2710000276565552,9.152999877929688 C1.2710000276565552,9.152999877929688 1.2710000276565552,-9.152999877929688 1.2710000276565552,-9.152999877929688 C1.2710000276565552,-9.854000091552734 0.7009999752044678,-10.423999786376953 0,-10.423999786376953 C-0.7020000219345093,-10.423999786376953 -1.2710000276565552,-9.854000091552734 -1.2710000276565552,-9.152999877929688 C-1.2710000276565552,-9.152999877929688 -1.2710000276565552,9.152999877929688 -1.2710000276565552,9.152999877929688 C-1.2710000276565552,9.854999542236328 -0.7020000219345093,10.423999786376953 0,10.423999786376953z">
                </path>
            </g>
            <g opacity="1" transform="matrix(1,0,0,1,16.266000747680664,6.519000053405762)">
                <path fill="rgb(255,255,255)" fill-opacity="1"
                    d=" M5.7729997634887695,5.7729997634887695 C5.7729997634887695,5.7729997634887695 5.7729997634887695,5.7729997634887695 5.7729997634887695,5.7729997634887695 C6.269000053405762,5.2769999504089355 6.269000053405762,4.4720001220703125 5.7729997634887695,3.9760000705718994 C5.7729997634887695,3.9760000705718994 -3.9749999046325684,-5.7729997634887695 -3.9749999046325684,-5.7729997634887695 C-4.4710001945495605,-6.269000053405762 -5.276000022888184,-6.269000053405762 -5.771999835968018,-5.7729997634887695 C-6.26800012588501,-5.2769999504089355 -6.26800012588501,-4.4710001945495605 -5.771999835968018,-3.9749999046325684 C-5.771999835968018,-3.9749999046325684 3.9749999046325684,5.7729997634887695 3.9749999046325684,5.7729997634887695 C4.4710001945495605,6.269000053405762 5.2769999504089355,6.269000053405762 5.7729997634887695,5.7729997634887695z">
                </path>
            </g>
            <g opacity="1" transform="matrix(1,0,0,1,6.51800012588501,6.519000053405762)">
                <path fill="rgb(255,255,255)" fill-opacity="1"
                    d=" M5.7729997634887695,-5.7729997634887695 C5.7729997634887695,-5.7729997634887695 5.7729997634887695,-5.7729997634887695 5.7729997634887695,-5.7729997634887695 C5.2769999504089355,-6.269000053405762 4.4710001945495605,-6.269000053405762 3.9749999046325684,-5.7729997634887695 C3.9749999046325684,-5.7729997634887695 -5.771999835968018,3.9749999046325684 -5.771999835968018,3.9749999046325684 C-6.26800012588501,4.4710001945495605 -6.26800012588501,5.2769999504089355 -5.771999835968018,5.7729997634887695 C-5.276000022888184,6.269000053405762 -4.4710001945495605,6.269000053405762 -3.9749999046325684,5.7729997634887695 C-3.9749999046325684,5.7729997634887695 5.7729997634887695,-3.9749999046325684 5.7729997634887695,-3.9749999046325684 C6.269000053405762,-4.4710001945495605 6.269000053405762,-5.2769999504089355 5.7729997634887695,-5.7729997634887695z">
                </path>
            </g>
            <g opacity="1" transform="matrix(1,0,0,1,11.413000106811523,33.00400161743164)">
                <path fill="rgb(255,255,255)" fill-opacity="1"
                    d=" M1.3630000352859497,0 C1.3630000352859497,0.753000020980835 0.753000020980835,1.3619999885559082 0,1.3619999885559082 C-0.7519999742507935,1.3619999885559082 -1.3630000352859497,0.753000020980835 -1.3630000352859497,0 C-1.3630000352859497,-0.7519999742507935 -0.7519999742507935,-1.3619999885559082 0,-1.3619999885559082 C0.753000020980835,-1.3619999885559082 1.3630000352859497,-0.7519999742507935 1.3630000352859497,0z">
                </path>
            </g>
            <g opacity="1" transform="matrix(1,0,0,1,11.413000106811523,37.108001708984375)">
                <path fill="rgb(255,255,255)" fill-opacity="1"
                    d=" M0.9639999866485596,0 C0.9639999866485596,0.5320000052452087 0.531000018119812,0.9639999866485596 -0.0010000000474974513,0.9639999866485596 C-0.5329999923706055,0.9639999866485596 -0.9639999866485596,0.5320000052452087 -0.9639999866485596,0 C-0.9639999866485596,-0.5320000052452087 -0.5329999923706055,-0.9639999866485596 -0.0010000000474974513,-0.9639999866485596 C0.531000018119812,-0.9639999866485596 0.9639999866485596,-0.5320000052452087 0.9639999866485596,0z">
                </path>
            </g>
            <g opacity="1" transform="matrix(1,0,0,1,11.413000106811523,40.207000732421875)">
                <path fill="rgb(255,255,255)" fill-opacity="1"
                    d=" M0.5720000267028809,0 C0.5720000267028809,0.3149999976158142 0.3160000145435333,0.5720000267028809 0,0.5720000267028809 C-0.3160000145435333,0.5720000267028809 -0.5720000267028809,0.3149999976158142 -0.5720000267028809,0 C-0.5720000267028809,-0.3149999976158142 -0.3160000145435333,-0.5720000267028809 0,-0.5720000267028809 C0.3160000145435333,-0.5720000267028809 0.5720000267028809,-0.3149999976158142 0.5720000267028809,0z">
                </path>
            </g>
        </g>
        <g transform="matrix(0.6966300010681152,0,0,0.6966300010681152,71.2507553100586,179.8897705078125)" opacity="1"
            style="display: block;">
            <g opacity="1" transform="matrix(1,0,0,1,11.392000198364258,19.839000701904297)">
                <path fill="rgb(255,255,255)" fill-opacity="1"
                    d=" M0,10.423999786376953 C0,10.423999786376953 0,10.423999786376953 0,10.423999786376953 C0.7009999752044678,10.423999786376953 1.2710000276565552,9.854999542236328 1.2710000276565552,9.152999877929688 C1.2710000276565552,9.152999877929688 1.2710000276565552,-9.152999877929688 1.2710000276565552,-9.152999877929688 C1.2710000276565552,-9.854000091552734 0.7009999752044678,-10.423999786376953 0,-10.423999786376953 C-0.7020000219345093,-10.423999786376953 -1.2710000276565552,-9.854000091552734 -1.2710000276565552,-9.152999877929688 C-1.2710000276565552,-9.152999877929688 -1.2710000276565552,9.152999877929688 -1.2710000276565552,9.152999877929688 C-1.2710000276565552,9.854999542236328 -0.7020000219345093,10.423999786376953 0,10.423999786376953z">
                </path>
            </g>
            <g opacity="1" transform="matrix(1,0,0,1,16.266000747680664,6.519000053405762)">
                <path fill="rgb(255,255,255)" fill-opacity="1"
                    d=" M5.7729997634887695,5.7729997634887695 C5.7729997634887695,5.7729997634887695 5.7729997634887695,5.7729997634887695 5.7729997634887695,5.7729997634887695 C6.269000053405762,5.2769999504089355 6.269000053405762,4.4720001220703125 5.7729997634887695,3.9760000705718994 C5.7729997634887695,3.9760000705718994 -3.9749999046325684,-5.7729997634887695 -3.9749999046325684,-5.7729997634887695 C-4.4710001945495605,-6.269000053405762 -5.276000022888184,-6.269000053405762 -5.771999835968018,-5.7729997634887695 C-6.26800012588501,-5.2769999504089355 -6.26800012588501,-4.4710001945495605 -5.771999835968018,-3.9749999046325684 C-5.771999835968018,-3.9749999046325684 3.9749999046325684,5.7729997634887695 3.9749999046325684,5.7729997634887695 C4.4710001945495605,6.269000053405762 5.2769999504089355,6.269000053405762 5.7729997634887695,5.7729997634887695z">
                </path>
            </g>
            <g opacity="1" transform="matrix(1,0,0,1,6.51800012588501,6.519000053405762)">
                <path fill="rgb(255,255,255)" fill-opacity="1"
                    d=" M5.7729997634887695,-5.7729997634887695 C5.7729997634887695,-5.7729997634887695 5.7729997634887695,-5.7729997634887695 5.7729997634887695,-5.7729997634887695 C5.2769999504089355,-6.269000053405762 4.4710001945495605,-6.269000053405762 3.9749999046325684,-5.7729997634887695 C3.9749999046325684,-5.7729997634887695 -5.771999835968018,3.9749999046325684 -5.771999835968018,3.9749999046325684 C-6.26800012588501,4.4710001945495605 -6.26800012588501,5.2769999504089355 -5.771999835968018,5.7729997634887695 C-5.276000022888184,6.269000053405762 -4.4710001945495605,6.269000053405762 -3.9749999046325684,5.7729997634887695 C-3.9749999046325684,5.7729997634887695 5.7729997634887695,-3.9749999046325684 5.7729997634887695,-3.9749999046325684 C6.269000053405762,-4.4710001945495605 6.269000053405762,-5.2769999504089355 5.7729997634887695,-5.7729997634887695z">
                </path>
            </g>
            <g opacity="1" transform="matrix(1,0,0,1,11.413000106811523,33.00400161743164)">
                <path fill="rgb(255,255,255)" fill-opacity="1"
                    d=" M1.3630000352859497,0 C1.3630000352859497,0.753000020980835 0.753000020980835,1.3619999885559082 0,1.3619999885559082 C-0.7519999742507935,1.3619999885559082 -1.3630000352859497,0.753000020980835 -1.3630000352859497,0 C-1.3630000352859497,-0.7519999742507935 -0.7519999742507935,-1.3619999885559082 0,-1.3619999885559082 C0.753000020980835,-1.3619999885559082 1.3630000352859497,-0.7519999742507935 1.3630000352859497,0z">
                </path>
            </g>
            <g opacity="1" transform="matrix(1,0,0,1,11.413000106811523,37.108001708984375)">
                <path fill="rgb(255,255,255)" fill-opacity="1"
                    d=" M0.9639999866485596,0 C0.9639999866485596,0.5320000052452087 0.531000018119812,0.9639999866485596 -0.0010000000474974513,0.9639999866485596 C-0.5329999923706055,0.9639999866485596 -0.9639999866485596,0.5320000052452087 -0.9639999866485596,0 C-0.9639999866485596,-0.5320000052452087 -0.5329999923706055,-0.9639999866485596 -0.0010000000474974513,-0.9639999866485596 C0.531000018119812,-0.9639999866485596 0.9639999866485596,-0.5320000052452087 0.9639999866485596,0z">
                </path>
            </g>
            <g opacity="1" transform="matrix(1,0,0,1,11.413000106811523,40.207000732421875)">
                <path fill="rgb(255,255,255)" fill-opacity="1"
                    d=" M0.5720000267028809,0 C0.5720000267028809,0.3149999976158142 0.3160000145435333,0.5720000267028809 0,0.5720000267028809 C-0.3160000145435333,0.5720000267028809 -0.5720000267028809,0.3149999976158142 -0.5720000267028809,0 C-0.5720000267028809,-0.3149999976158142 -0.3160000145435333,-0.5720000267028809 0,-0.5720000267028809 C0.3160000145435333,-0.5720000267028809 0.5720000267028809,-0.3149999976158142 0.5720000267028809,0z">
                </path>
            </g>
        </g>
    </g>
</svg>